<svg xmlns="http://www.w3.org/2000/svg" width="1200" height="800" viewBox="0 0 1200 800">
  <defs>
    <linearGradient id="bg" x1="0" y1="0" x2="1" y2="1">
      <stop offset="0" stop-color="#ffcf5a" stop-opacity="0.36"/>
      <stop offset="1" stop-color="#1aa3ff" stop-opacity="0.45"/>
    </linearGradient>
  </defs>
  <rect width="1200" height="800" fill="#071016"/>
  <rect width="1200" height="800" fill="url(#bg)"/>
  <g opacity="0.22">
    <circle cx="250" cy="220" r="190" fill="#ffffff"/>
    <circle cx="980" cy="630" r="220" fill="#ffffff"/>
  </g>
  <g transform="translate(160,190)">
    <path d="M60 520 C 220 380, 420 270, 660 190 C 860 125, 980 95, 1080 70"
      fill="none" stroke="rgba(255,255,255,0.22)" stroke-width="12" stroke-linecap="round"/>
    <path d="M70 540 C 230 400, 430 290, 670 210 C 870 145, 990 115, 1090 90"
      fill="none" stroke="rgba(255,255,255,0.14)" stroke-width="8" stroke-linecap="round"/>

    <g opacity="0.22">
      <circle cx="300" cy="330" r="18" fill="rgba(255,255,255,0.20)"/>
      <circle cx="520" cy="250" r="16" fill="rgba(255,255,255,0.18)"/>
      <circle cx="740" cy="190" r="14" fill="rgba(255,255,255,0.16)"/>
      <circle cx="940" cy="135" r="12" fill="rgba(255,255,255,0.14)"/>
    </g>

    <path d="M35 545 L115 470" stroke="rgba(255,255,255,0.22)" stroke-width="18" stroke-linecap="round"/>
    <path d="M18 560 L98 485" stroke="rgba(255,255,255,0.16)" stroke-width="12" stroke-linecap="round"/>
  </g>
</svg>
