<svg xmlns="http://www.w3.org/2000/svg" width="1600" height="1000" viewBox="0 0 1600 1000">
  <defs>
    <linearGradient id="g1" x1="0" y1="0" x2="1" y2="1">
      <stop offset="0" stop-color="#1aa3ff" stop-opacity="0.65"/>
      <stop offset="0.55" stop-color="#30d1a6" stop-opacity="0.55"/>
      <stop offset="1" stop-color="#ffcf5a" stop-opacity="0.30"/>
    </linearGradient>
    <radialGradient id="g2" cx="25%" cy="20%" r="70%">
      <stop offset="0" stop-color="#ffffff" stop-opacity="0.18"/>
      <stop offset="1" stop-color="#ffffff" stop-opacity="0"/>
    </radialGradient>
    <filter id="shadow" x="-20%" y="-20%" width="140%" height="140%">
      <feDropShadow dx="0" dy="18" stdDeviation="18" flood-color="#000" flood-opacity="0.35"/>
    </filter>
  </defs>

  <rect width="1600" height="1000" fill="#071016"/>
  <rect width="1600" height="1000" fill="url(#g1)" opacity="0.9"/>
  <rect width="1600" height="1000" fill="url(#g2)"/>

  <g opacity="0.35">
    <path d="M0 820 C 260 740, 420 760, 640 820 C 860 880, 1040 900, 1600 820 L1600 1000 L0 1000 Z"
      fill="#0b1821"/>
    <path d="M0 860 C 320 790, 520 810, 720 860 C 920 910, 1120 930, 1600 860 L1600 1000 L0 1000 Z"
      fill="#0a1a24" opacity="0.7"/>
  </g>

  <g filter="url(#shadow)">
    <g transform="translate(330,280) rotate(-10)">
      <path d="M180 120 C 240 70, 340 70, 405 120 C 480 180, 480 285, 405 345 C 340 395, 240 395, 180 345 C 110 295, 110 180, 180 120 Z"
        fill="rgba(255,255,255,0.08)" stroke="rgba(255,255,255,0.16)" stroke-width="3"/>
      <path d="M210 165 C 255 120, 330 120, 370 165 C 410 210, 410 260, 370 305 C 330 350, 255 350, 210 305 C 170 260, 170 210, 210 165 Z"
        fill="rgba(255,255,255,0.06)" stroke="rgba(255,255,255,0.14)" stroke-width="3"/>

      <path d="M370 235 C 470 205, 585 215, 690 260"
        fill="none" stroke="rgba(255,255,255,0.30)" stroke-width="10" stroke-linecap="round"/>
      <path d="M685 258 C 780 300, 920 315, 1060 240"
        fill="none" stroke="rgba(255,255,255,0.22)" stroke-width="8" stroke-linecap="round"/>

      <g transform="translate(690,240)">
        <path d="M0 0 C 60 -40, 140 -35, 190 10 C 240 55, 220 125, 150 155 C 85 182, 30 160, 0 120 Z"
          fill="rgba(255,255,255,0.10)" stroke="rgba(255,255,255,0.18)" stroke-width="3"/>
        <path d="M22 18 C 70 -10, 120 -6, 155 22 C 190 50, 182 95, 135 115 C 95 132, 58 122, 34 96 Z"
          fill="rgba(255,255,255,0.07)" stroke="rgba(255,255,255,0.14)" stroke-width="3"/>
        <circle cx="60" cy="48" r="10" fill="rgba(0,0,0,0.45)"/>
        <circle cx="62" cy="46" r="4" fill="rgba(255,255,255,0.70)"/>
        <path d="M150 155 C 150 210, 120 240, 95 270"
          fill="none" stroke="rgba(255,255,255,0.20)" stroke-width="7" stroke-linecap="round"/>
        <path d="M95 270 C 75 292, 78 325, 105 338"
          fill="none" stroke="rgba(255,255,255,0.22)" stroke-width="7" stroke-linecap="round"/>
        <path d="M105 338 C 140 352, 170 338, 178 312"
          fill="none" stroke="rgba(255,255,255,0.22)" stroke-width="7" stroke-linecap="round"/>
      </g>
    </g>

    <g opacity="0.22">
      <circle cx="1220" cy="220" r="170" fill="rgba(255,255,255,0.10)"/>
      <circle cx="1260" cy="260" r="120" fill="rgba(255,255,255,0.06)"/>
      <circle cx="1180" cy="300" r="90" fill="rgba(255,255,255,0.05)"/>
    </g>
  </g>

  <g opacity="0.22">
    <path d="M0 725 C 220 690, 390 700, 560 725 C 730 750, 920 760, 1200 720 C 1380 695, 1490 700, 1600 715"
      fill="none" stroke="rgba(255,255,255,0.18)" stroke-width="5" stroke-linecap="round"/>
    <path d="M0 760 C 260 725, 440 735, 610 760 C 780 785, 980 795, 1240 760 C 1400 737, 1500 740, 1600 755"
      fill="none" stroke="rgba(255,255,255,0.12)" stroke-width="4" stroke-linecap="round"/>
  </g>
</svg>
